# File produced by Open Asset Import Library (http://www.assimp.sf.net)
# (assimp v3.0.1262)

mtllib peg-assymetric.stl.obj.mtl

# 372 vertex positions
v  0.01397 -0.02667 0
v  -0.01397 -0.02667 0
v  0.01397 0 0
v  -0.01397 -0.02667 0
v  -0.01397 1.71083e-18 0
v  0.01397 0 0
v  0.01397 0 0
v  -0.00783978 0.0115628 2.77556e-17
v  -0.00654367 0.0123427 2.77556e-17
v  -0.01397 1.71083e-18 0
v  -0.0138881 0.00151042 2.77556e-17
v  0.01397 0 0
v  -0.0138881 0.00151042 2.77556e-17
v  -0.0136434 0.00300314 2.77556e-17
v  0.01397 0 0
v  0.01397 0 0
v  -0.0136434 0.00300314 2.77556e-17
v  -0.0132387 0.00446064 2.77556e-17
v  -0.0111214 0.00845428 2.77556e-17
v  -0.0101422 0.00960716 2.77556e-17
v  0.01397 0 0
v  -0.0101422 0.00960716 2.77556e-17
v  -0.00904399 0.0106474 2.77556e-17
v  0.01397 0 0
v  0.01397 0 0
v  -0.00904399 0.0106474 2.77556e-17
v  -0.00783978 0.0115628 2.77556e-17
v  -0.00654367 0.0123427 2.77556e-17
v  -0.00517083 0.0129778 2.77556e-17
v  0.01397 0 0
v  -0.00517083 0.0129778 2.77556e-17
v  -0.00373737 0.0134608 2.77556e-17
v  0.01397 0 0
v  0.01397 0 0
v  -0.00373737 0.0134608 2.77556e-17
v  -0.00226009 0.013786 2.77556e-17
v  0.00783978 0.0115628 2.77556e-17
v  0.00904399 0.0106474 2.77556e-17
v  0.0119703 0.00720229 2.77556e-17
v  0.00904399 0.0106474 2.77556e-17
v  0.0101422 0.00960716 2.77556e-17
v  0.0119703 0.00720229 2.77556e-17
v  0.0119703 0.00720229 2.77556e-17
v  0.0101422 0.00960716 2.77556e-17
v  0.0111214 0.00845428 2.77556e-17
v  -0.00226009 0.013786 2.77556e-17
v  -0.000756321 0.0139495 2.77556e-17
v  0.01397 0 0
v  -0.000756321 0.0139495 2.77556e-17
v  0.000756321 0.0139495 2.77556e-17
v  0.01397 0 0
v  0.01397 0 0
v  0.000756321 0.0139495 2.77556e-17
v  0.00226009 0.013786 2.77556e-17
v  0.00783978 0.0115628 2.77556e-17
v  0.0119703 0.00720229 2.77556e-17
v  0.00654367 0.0123427 2.77556e-17
v  0.0119703 0.00720229 2.77556e-17
v  0.0126788 0.00586585 2.77556e-17
v  0.00654367 0.0123427 2.77556e-17
v  0.00654367 0.0123427 2.77556e-17
v  0.0126788 0.00586585 2.77556e-17
v  0.0132387 0.00446064 2.77556e-17
v  0.0132387 0.00446064 2.77556e-17
v  0.0136434 0.00300314 2.77556e-17
v  0.00654367 0.0123427 2.77556e-17
v  0.0136434 0.00300314 2.77556e-17
v  0.0138881 0.00151042 2.77556e-17
v  0.00654367 0.0123427 2.77556e-17
v  0.00654367 0.0123427 2.77556e-17
v  0.0138881 0.00151042 2.77556e-17
v  0.01397 0 0
v  -0.0132387 0.00446064 2.77556e-17
v  -0.0126788 0.00586585 2.77556e-17
v  0.01397 0 0
v  -0.0126788 0.00586585 2.77556e-17
v  -0.0119703 0.00720229 2.77556e-17
v  0.01397 0 0
v  0.01397 0 0
v  -0.0119703 0.00720229 2.77556e-17
v  -0.0111214 0.00845428 2.77556e-17
v  0.00226009 0.013786 2.77556e-17
v  0.00373737 0.0134608 2.77556e-17
v  0.01397 0 0
v  0.00373737 0.0134608 2.77556e-17
v  0.00517083 0.0129778 2.77556e-17
v  0.01397 0 0
v  0.01397 0 0
v  0.00517083 0.0129778 2.77556e-17
v  0.00654367 0.0123427 2.77556e-17
v  -0.00517083 0.0129778 0.1143
v  -0.00654367 0.0123427 0.1143
v  0.01397 0 0.1143
v  -0.00654367 0.0123427 0.1143
v  -0.00783978 0.0115628 0.1143
v  0.01397 0 0.1143
v  0.01397 0 0.1143
v  -0.00783978 0.0115628 0.1143
v  -0.00904399 0.0106474 0.1143
v  0.0101422 0.00960716 0.1143
v  0.00904399 0.0106474 0.1143
v  0.01397 0 0.1143
v  0.00904399 0.0106474 0.1143
v  0.00783978 0.0115628 0.1143
v  0.01397 0 0.1143
v  0.00783978 0.0115628 0.1143
v  0.00654367 0.0123427 0.1143
v  0.01397 0 0.1143
v  0.00654367 0.0123427 0.1143
v  0.00517083 0.0129778 0.1143
v  0.01397 0 0.1143
v  0.01397 0 0.1143
v  0.00517083 0.0129778 0.1143
v  0.00373737 0.0134608 0.1143
v  -0.00904399 0.0106474 0.1143
v  -0.0101422 0.00960716 0.1143
v  0.01397 0 0.1143
v  -0.0101422 0.00960716 0.1143
v  -0.0111214 0.00845428 0.1143
v  0.01397 0 0.1143
v  0.01397 0 0.1143
v  -0.0111214 0.00845428 0.1143
v  -0.0119703 0.00720229 0.1143
v  0.0138881 0.00151042 0.1143
v  0.0136434 0.00300314 0.1143
v  0.0119703 0.00720229 0.1143
v  0.0136434 0.00300314 0.1143
v  0.0132387 0.00446064 0.1143
v  0.0119703 0.00720229 0.1143
v  0.0119703 0.00720229 0.1143
v  0.0132387 0.00446064 0.1143
v  0.0126788 0.00586585 0.1143
v  0.0138881 0.00151042 0.1143
v  0.0119703 0.00720229 0.1143
v  0.01397 0 0.1143
v  0.0119703 0.00720229 0.1143
v  0.0111214 0.00845428 0.1143
v  0.01397 0 0.1143
v  0.01397 0 0.1143
v  0.0111214 0.00845428 0.1143
v  0.0101422 0.00960716 0.1143
v  0.00373737 0.0134608 0.1143
v  0.00226009 0.013786 0.1143
v  0.01397 0 0.1143
v  0.00226009 0.013786 0.1143
v  0.000756321 0.0139495 0.1143
v  0.01397 0 0.1143
v  0.01397 0 0.1143
v  0.000756321 0.0139495 0.1143
v  -0.000756321 0.0139495 0.1143
v  -0.000756321 0.0139495 0.1143
v  -0.00226009 0.013786 0.1143
v  0.01397 0 0.1143
v  -0.00226009 0.013786 0.1143
v  -0.00373737 0.0134608 0.1143
v  0.01397 0 0.1143
v  0.01397 0 0.1143
v  -0.00373737 0.0134608 0.1143
v  -0.00517083 0.0129778 0.1143
v  -0.0119703 0.00720229 0.1143
v  -0.0126788 0.00586585 0.1143
v  0.01397 0 0.1143
v  -0.0126788 0.00586585 0.1143
v  -0.0132387 0.00446064 0.1143
v  0.01397 0 0.1143
v  0.01397 0 0.1143
v  -0.0132387 0.00446064 0.1143
v  -0.0136434 0.00300314 0.1143
v  -0.01397 -0.02667 0.1143
v  0.01397 -0.02667 0.1143
v  -0.01397 1.71083e-18 0.1143
v  0.01397 -0.02667 0.1143
v  0.01397 0 0.1143
v  -0.01397 1.71083e-18 0.1143
v  -0.01397 1.71083e-18 0.1143
v  0.01397 0 0.1143
v  -0.0138881 0.00151042 0.1143
v  0.01397 0 0.1143
v  -0.0136434 0.00300314 0.1143
v  -0.0138881 0.00151042 0.1143
v  0.01397 0 0.1143
v  0.01397 -0.02667 0.1143
v  0.01397 0 0
v  0.01397 -0.02667 0.1143
v  0.01397 -0.02667 0
v  0.01397 0 0
v  0.01397 -0.02667 0.1143
v  -0.01397 -0.02667 0.1143
v  0.01397 -0.02667 0
v  -0.01397 -0.02667 0.1143
v  -0.01397 -0.02667 0
v  0.01397 -0.02667 0
v  0.01397 0 0.1143
v  0.01397 0 0
v  0.0138881 0.00151042 2.77556e-17
v  0.01397 0 0.1143
v  0.0138881 0.00151042 2.77556e-17
v  0.0138881 0.00151042 0.1143
v  0.0138881 0.00151042 2.77556e-17
v  0.0136434 0.00300314 2.77556e-17
v  0.0138881 0.00151042 0.1143
v  0.0138881 0.00151042 0.1143
v  0.0136434 0.00300314 2.77556e-17
v  0.0136434 0.00300314 0.1143
v  0.0136434 0.00300314 2.77556e-17
v  0.0132387 0.00446064 2.77556e-17
v  0.0136434 0.00300314 0.1143
v  0.0136434 0.00300314 0.1143
v  0.0132387 0.00446064 2.77556e-17
v  0.0132387 0.00446064 0.1143
v  0.0132387 0.00446064 2.77556e-17
v  0.0126788 0.00586585 2.77556e-17
v  0.0132387 0.00446064 0.1143
v  0.0132387 0.00446064 0.1143
v  0.0126788 0.00586585 2.77556e-17
v  0.0126788 0.00586585 0.1143
v  0.0126788 0.00586585 2.77556e-17
v  0.0119703 0.00720229 2.77556e-17
v  0.0126788 0.00586585 0.1143
v  0.0126788 0.00586585 0.1143
v  0.0119703 0.00720229 2.77556e-17
v  0.0119703 0.00720229 0.1143
v  0.0119703 0.00720229 2.77556e-17
v  0.0111214 0.00845428 2.77556e-17
v  0.0119703 0.00720229 0.1143
v  0.0119703 0.00720229 0.1143
v  0.0111214 0.00845428 2.77556e-17
v  0.0111214 0.00845428 0.1143
v  0.0111214 0.00845428 2.77556e-17
v  0.0101422 0.00960716 2.77556e-17
v  0.0111214 0.00845428 0.1143
v  0.0111214 0.00845428 0.1143
v  0.0101422 0.00960716 2.77556e-17
v  0.0101422 0.00960716 0.1143
v  0.0101422 0.00960716 2.77556e-17
v  0.00904399 0.0106474 2.77556e-17
v  0.0101422 0.00960716 0.1143
v  0.0101422 0.00960716 0.1143
v  0.00904399 0.0106474 2.77556e-17
v  0.00904399 0.0106474 0.1143
v  0.00904399 0.0106474 2.77556e-17
v  0.00783978 0.0115628 2.77556e-17
v  0.00904399 0.0106474 0.1143
v  0.00904399 0.0106474 0.1143
v  0.00783978 0.0115628 2.77556e-17
v  0.00783978 0.0115628 0.1143
v  0.00783978 0.0115628 2.77556e-17
v  0.00654367 0.0123427 2.77556e-17
v  0.00783978 0.0115628 0.1143
v  0.00783978 0.0115628 0.1143
v  0.00654367 0.0123427 2.77556e-17
v  0.00654367 0.0123427 0.1143
v  0.00654367 0.0123427 2.77556e-17
v  0.00517083 0.0129778 2.77556e-17
v  0.00654367 0.0123427 0.1143
v  0.00654367 0.0123427 0.1143
v  0.00517083 0.0129778 2.77556e-17
v  0.00517083 0.0129778 0.1143
v  0.00517083 0.0129778 2.77556e-17
v  0.00373737 0.0134608 2.77556e-17
v  0.00517083 0.0129778 0.1143
v  0.00517083 0.0129778 0.1143
v  0.00373737 0.0134608 2.77556e-17
v  0.00373737 0.0134608 0.1143
v  0.00373737 0.0134608 2.77556e-17
v  0.00226009 0.013786 2.77556e-17
v  0.00373737 0.0134608 0.1143
v  0.00373737 0.0134608 0.1143
v  0.00226009 0.013786 2.77556e-17
v  0.00226009 0.013786 0.1143
v  0.00226009 0.013786 2.77556e-17
v  0.000756321 0.0139495 2.77556e-17
v  0.00226009 0.013786 0.1143
v  0.00226009 0.013786 0.1143
v  0.000756321 0.0139495 2.77556e-17
v  0.000756321 0.0139495 0.1143
v  0.000756321 0.0139495 2.77556e-17
v  -0.000756321 0.0139495 2.77556e-17
v  0.000756321 0.0139495 0.1143
v  0.000756321 0.0139495 0.1143
v  -0.000756321 0.0139495 2.77556e-17
v  -0.000756321 0.0139495 0.1143
v  -0.000756321 0.0139495 2.77556e-17
v  -0.00226009 0.013786 2.77556e-17
v  -0.000756321 0.0139495 0.1143
v  -0.000756321 0.0139495 0.1143
v  -0.00226009 0.013786 2.77556e-17
v  -0.00226009 0.013786 0.1143
v  -0.00226009 0.013786 2.77556e-17
v  -0.00373737 0.0134608 2.77556e-17
v  -0.00226009 0.013786 0.1143
v  -0.00226009 0.013786 0.1143
v  -0.00373737 0.0134608 2.77556e-17
v  -0.00373737 0.0134608 0.1143
v  -0.00373737 0.0134608 2.77556e-17
v  -0.00517083 0.0129778 2.77556e-17
v  -0.00373737 0.0134608 0.1143
v  -0.00373737 0.0134608 0.1143
v  -0.00517083 0.0129778 2.77556e-17
v  -0.00517083 0.0129778 0.1143
v  -0.00517083 0.0129778 2.77556e-17
v  -0.00654367 0.0123427 2.77556e-17
v  -0.00517083 0.0129778 0.1143
v  -0.00517083 0.0129778 0.1143
v  -0.00654367 0.0123427 2.77556e-17
v  -0.00654367 0.0123427 0.1143
v  -0.00654367 0.0123427 2.77556e-17
v  -0.00783978 0.0115628 2.77556e-17
v  -0.00654367 0.0123427 0.1143
v  -0.00654367 0.0123427 0.1143
v  -0.00783978 0.0115628 2.77556e-17
v  -0.00783978 0.0115628 0.1143
v  -0.00783978 0.0115628 2.77556e-17
v  -0.00904399 0.0106474 2.77556e-17
v  -0.00783978 0.0115628 0.1143
v  -0.00783978 0.0115628 0.1143
v  -0.00904399 0.0106474 2.77556e-17
v  -0.00904399 0.0106474 0.1143
v  -0.00904399 0.0106474 2.77556e-17
v  -0.0101422 0.00960716 2.77556e-17
v  -0.00904399 0.0106474 0.1143
v  -0.00904399 0.0106474 0.1143
v  -0.0101422 0.00960716 2.77556e-17
v  -0.0101422 0.00960716 0.1143
v  -0.0101422 0.00960716 2.77556e-17
v  -0.0111214 0.00845428 2.77556e-17
v  -0.0101422 0.00960716 0.1143
v  -0.0101422 0.00960716 0.1143
v  -0.0111214 0.00845428 2.77556e-17
v  -0.0111214 0.00845428 0.1143
v  -0.0111214 0.00845428 2.77556e-17
v  -0.0119703 0.00720229 2.77556e-17
v  -0.0111214 0.00845428 0.1143
v  -0.0111214 0.00845428 0.1143
v  -0.0119703 0.00720229 2.77556e-17
v  -0.0119703 0.00720229 0.1143
v  -0.0119703 0.00720229 2.77556e-17
v  -0.0126788 0.00586585 2.77556e-17
v  -0.0119703 0.00720229 0.1143
v  -0.0119703 0.00720229 0.1143
v  -0.0126788 0.00586585 2.77556e-17
v  -0.0126788 0.00586585 0.1143
v  -0.0126788 0.00586585 2.77556e-17
v  -0.0132387 0.00446064 2.77556e-17
v  -0.0126788 0.00586585 0.1143
v  -0.0126788 0.00586585 0.1143
v  -0.0132387 0.00446064 2.77556e-17
v  -0.0132387 0.00446064 0.1143
v  -0.0132387 0.00446064 2.77556e-17
v  -0.0136434 0.00300314 2.77556e-17
v  -0.0132387 0.00446064 0.1143
v  -0.0132387 0.00446064 0.1143
v  -0.0136434 0.00300314 2.77556e-17
v  -0.0136434 0.00300314 0.1143
v  -0.0136434 0.00300314 2.77556e-17
v  -0.0138881 0.00151042 2.77556e-17
v  -0.0136434 0.00300314 0.1143
v  -0.0136434 0.00300314 0.1143
v  -0.0138881 0.00151042 2.77556e-17
v  -0.0138881 0.00151042 0.1143
v  -0.0138881 0.00151042 2.77556e-17
v  -0.01397 1.71083e-18 0
v  -0.0138881 0.00151042 0.1143
v  -0.0138881 0.00151042 0.1143
v  -0.01397 1.71083e-18 0
v  -0.01397 1.71083e-18 0.1143
v  -0.01397 -0.02667 0.1143
v  -0.01397 1.71083e-18 0.1143
v  -0.01397 -0.02667 0
v  -0.01397 1.71083e-18 0.1143
v  -0.01397 1.71083e-18 0
v  -0.01397 -0.02667 0

# 0 UV coordinates

# 372 vertex normals
vn 0 0 -1
vn 0 0 -1
vn 0 0 -1
vn 0 0 -1
vn -0 -0 -1
vn 0 0 -1
vn 0 0 -1
vn -6.76515e-16 1.12437e-15 -1
vn -6.76515e-16 1.12437e-15 -1
vn -0 -0 -1
vn 1.12521e-30 1.8376e-14 -1
vn 0 0 -1
vn 1.12521e-30 1.8376e-14 -1
vn -9.87542e-16 1.61899e-16 -1
vn 0 0 -1
vn 0 0 -1
vn -9.87542e-16 1.61899e-16 -1
vn -9.75687e-16 2.70898e-16 -1
vn -8.60037e-16 7.30522e-16 -1
vn -8.60037e-16 7.30522e-16 -1
vn 0 0 -1
vn -8.60037e-16 7.30522e-16 -1
vn -8.1028e-16 8.55402e-16 -1
vn 0 0 -1
vn 0 0 -1
vn -8.1028e-16 8.55402e-16 -1
vn -6.76515e-16 1.12437e-15 -1
vn -6.76515e-16 1.12437e-15 -1
vn -5.88143e-16 1.27125e-15 -1
vn 0 0 -1
vn -5.88143e-16 1.27125e-15 -1
vn -4.81386e-16 1.4287e-15 -1
vn 0 0 -1
vn 0 0 -1
vn -4.81386e-16 1.4287e-15 -1
vn -3.51958e-16 1.59896e-15 -1
vn 0 0 -1
vn 0 0 -1
vn 0 0 -1
vn 0 0 -1
vn -0 -0 -1
vn 0 0 -1
vn 0 0 -1
vn -0 -0 -1
vn 0 0 -1
vn -3.51958e-16 1.59896e-15 -1
vn -1.94108e-16 1.7848e-15 -1
vn 0 0 -1
vn -1.94108e-16 1.7848e-15 -1
vn -0 1.98972e-15 -1
vn 0 0 -1
vn 0 0 -1
vn -0 1.98972e-15 -1
vn 2.41247e-16 2.21824e-15 -1
vn 0 0 -1
vn 0 0 -1
vn -0 -0 -1
vn 0 0 -1
vn -0 -0 -1
vn -0 -0 -1
vn -0 -0 -1
vn -0 -0 -1
vn 0 0 -1
vn 0 0 -1
vn -0 -0 -1
vn -0 -0 -1
vn -0 -0 -1
vn -0 -0 -1
vn -0 -0 -1
vn -0 -0 -1
vn -0 -0 -1
vn 0 0 -1
vn -9.75687e-16 2.70898e-16 -1
vn -9.57551e-16 3.81523e-16 -1
vn 0 0 -1
vn -9.57551e-16 3.81523e-16 -1
vn -9.32687e-16 4.9448e-16 -1
vn 0 0 -1
vn 0 0 -1
vn -9.32687e-16 4.9448e-16 -1
vn -8.60037e-16 7.30522e-16 -1
vn 2.41247e-16 2.21824e-15 -1
vn 5.45078e-16 2.47631e-15 -1
vn 0 0 -1
vn 5.45078e-16 2.47631e-15 -1
vn 9.33978e-16 2.77195e-15 -1
vn 0 0 -1
vn 0 0 -1
vn 9.33978e-16 2.77195e-15 -1
vn -0 -0 -1
vn 0 0 1
vn 0 0 1
vn 0 0 1
vn 0 0 1
vn -0 0 1
vn 0 0 1
vn 0 0 1
vn -0 0 1
vn 0 0 1
vn 0 0 1
vn 0 0 1
vn 0 0 1
vn 0 0 1
vn 0 0 1
vn 0 0 1
vn 0 0 1
vn 0 0 1
vn 0 0 1
vn 0 0 1
vn 0 0 1
vn 0 0 1
vn 0 0 1
vn 0 0 1
vn 0 0 1
vn 0 0 1
vn 0 0 1
vn 0 0 1
vn 0 0 1
vn -0 0 1
vn 0 0 1
vn 0 0 1
vn -0 0 1
vn 0 0 1
vn 0 0 1
vn 0 0 1
vn 0 0 1
vn 0 0 1
vn -0 -0 1
vn 0 0 1
vn 0 0 1
vn -0 -0 1
vn 0 0 1
vn 0 0 1
vn 0 0 1
vn 0 0 1
vn 0 0 1
vn 0 0 1
vn 0 0 1
vn 0 0 1
vn 0 0 1
vn 0 0 1
vn 0 0 1
vn 0 0 1
vn 0 0 1
vn 0 0 1
vn 0 0 1
vn 0 0 1
vn 0 0 1
vn 0 0 1
vn 0 0 1
vn 0 0 1
vn 0 0 1
vn 0 0 1
vn 0 0 1
vn -0 0 1
vn 0 0 1
vn 0 0 1
vn -0 0 1
vn 0 0 1
vn 0 0 1
vn 0 0 1
vn 0 0 1
vn 0 0 1
vn -0 0 1
vn 0 0 1
vn 0 0 1
vn -0 0 1
vn 0 0 1
vn 0 0 1
vn 0 0 1
vn 0 0 1
vn 0 0 1
vn 0 0 1
vn 0 0 1
vn 0 0 1
vn 0 0 1
vn -0 0 1
vn 0 0 1
vn 0 0 1
vn -0 0 1
vn 1 0 0
vn 1 0 0
vn 1 0 0
vn 1 0 0
vn 1 -0 -0
vn 1 0 0
vn -0 -1 -0
vn -0 -1 -0
vn -0 -1 -0
vn -0 -1 -0
vn -0 -1 -0
vn -0 -1 -0
vn 0.998533 0.0541385 0
vn 0.998533 0.0541385 0
vn 0.998533 0.0541385 0
vn 0.998533 0.0541385 0
vn 0.998533 0.0541385 0
vn 0.998533 0.0541385 0
vn 0.986827 0.161782 -0
vn 0.986827 0.161782 -0
vn 0.986827 0.161782 -0
vn 0.986827 0.161782 -0
vn 0.986827 0.161782 -0
vn 0.986827 0.161782 0
vn 0.96355 0.267528 -0
vn 0.96355 0.267528 -0
vn 0.96355 0.267528 -0
vn 0.96355 0.267528 -0
vn 0.96355 0.267528 -0
vn 0.96355 0.267528 0
vn 0.928977 0.370138 -0
vn 0.928977 0.370138 -0
vn 0.928977 0.370138 -0
vn 0.928977 0.370138 -0
vn 0.928977 0.370138 -0
vn 0.928977 0.370138 0
vn 0.883512 0.468409 -0
vn 0.883512 0.468409 -0
vn 0.883512 0.468409 -0
vn 0.883512 0.468409 -0
vn 0.883512 0.468409 -0
vn 0.883512 0.468409 0
vn 0.827689 0.561187 -0
vn 0.827689 0.561187 -0
vn 0.827689 0.561187 -0
vn 0.827689 0.561187 -0
vn 0.827689 0.561187 -0
vn 0.827689 0.561187 0
vn 0.762162 0.647386 -0
vn 0.762162 0.647386 -0
vn 0.762162 0.647386 -0
vn 0.762162 0.647386 -0
vn 0.762162 0.647386 -0
vn 0.762162 0.647386 0
vn 0.687699 0.725996 -0
vn 0.687699 0.725996 -0
vn 0.687699 0.725996 -0
vn 0.687699 0.725996 -0
vn 0.687699 0.725996 -0
vn 0.687699 0.725996 0
vn 0.605174 0.796093 -0
vn 0.605174 0.796093 -0
vn 0.605174 0.796093 -0
vn 0.605174 0.796093 -0
vn 0.605174 0.796093 -0
vn 0.605174 0.796093 0
vn 0.515554 0.856857 -0
vn 0.515554 0.856857 -0
vn 0.515554 0.856857 -0
vn 0.515554 0.856857 -0
vn 0.515554 0.856857 -0
vn 0.515554 0.856857 0
vn 0.419889 0.907575 -0
vn 0.419889 0.907575 -0
vn 0.419889 0.907575 -0
vn 0.419889 0.907575 -0
vn 0.419889 0.907575 -0
vn 0.419889 0.907575 0
vn 0.319301 0.947653 -0
vn 0.319301 0.947653 -0
vn 0.319301 0.947653 -0
vn 0.319301 0.947653 -0
vn 0.319301 0.947653 -0
vn 0.319301 0.947653 0
vn 0.21497 0.976621 -0
vn 0.21497 0.976621 -0
vn 0.21497 0.976621 -0
vn 0.21497 0.976621 -0
vn 0.21497 0.976621 -0
vn 0.21497 0.976621 0
vn 0.108119 0.994138 -0
vn 0.108119 0.994138 -0
vn 0.108119 0.994138 -0
vn 0.108119 0.994138 -0
vn 0.108119 0.994138 -0
vn 0.108119 0.994138 0
vn -0 1 -0
vn -0 1 -0
vn -0 1 -0
vn -0 1 -0
vn -0 1 -0
vn 0 1 0
vn -0.108119 0.994138 -0
vn -0.108119 0.994138 -0
vn -0.108119 0.994138 -0
vn -0.108119 0.994138 -0
vn -0.108119 0.994138 -0
vn -0.108119 0.994138 0
vn -0.21497 0.976621 -0
vn -0.21497 0.976621 -0
vn -0.21497 0.976621 -0
vn -0.21497 0.976621 -0
vn -0.21497 0.976621 -0
vn -0.21497 0.976621 0
vn -0.319301 0.947653 -0
vn -0.319301 0.947653 -0
vn -0.319301 0.947653 -0
vn -0.319301 0.947653 -0
vn -0.319301 0.947653 -0
vn -0.319301 0.947653 0
vn -0.419889 0.907575 -0
vn -0.419889 0.907575 -0
vn -0.419889 0.907575 -0
vn -0.419889 0.907575 -0
vn -0.419889 0.907575 -0
vn -0.419889 0.907575 0
vn -0.515554 0.856857 -0
vn -0.515554 0.856857 -0
vn -0.515554 0.856857 -0
vn -0.515554 0.856857 -0
vn -0.515554 0.856857 -0
vn -0.515554 0.856857 0
vn -0.605174 0.796093 -0
vn -0.605174 0.796093 -0
vn -0.605174 0.796093 -0
vn -0.605174 0.796093 -0
vn -0.605174 0.796093 -0
vn -0.605174 0.796093 0
vn -0.687699 0.725996 -0
vn -0.687699 0.725996 -0
vn -0.687699 0.725996 -0
vn -0.687699 0.725996 -0
vn -0.687699 0.725996 -0
vn -0.687699 0.725996 0
vn -0.762162 0.647386 -0
vn -0.762162 0.647386 -0
vn -0.762162 0.647386 -0
vn -0.762162 0.647386 -0
vn -0.762162 0.647386 -0
vn -0.762162 0.647386 0
vn -0.827689 0.561187 -0
vn -0.827689 0.561187 -0
vn -0.827689 0.561187 -0
vn -0.827689 0.561187 -0
vn -0.827689 0.561187 -0
vn -0.827689 0.561187 0
vn -0.883512 0.468409 -0
vn -0.883512 0.468409 -0
vn -0.883512 0.468409 -0
vn -0.883512 0.468409 -0
vn -0.883512 0.468409 -0
vn -0.883512 0.468409 0
vn -0.928977 0.370138 -0
vn -0.928977 0.370138 -0
vn -0.928977 0.370138 -0
vn -0.928977 0.370138 -0
vn -0.928977 0.370138 -0
vn -0.928977 0.370138 0
vn -0.96355 0.267528 -0
vn -0.96355 0.267528 -0
vn -0.96355 0.267528 -0
vn -0.96355 0.267528 -0
vn -0.96355 0.267528 -0
vn -0.96355 0.267528 0
vn -0.986827 0.161782 -0
vn -0.986827 0.161782 -0
vn -0.986827 0.161782 -0
vn -0.986827 0.161782 -0
vn -0.986827 0.161782 -0
vn -0.986827 0.161782 0
vn -0.998533 0.0541385 -0
vn -0.998533 0.0541385 -0
vn -0.998533 0.0541385 -0
vn -0.998533 0.0541385 -0
vn -0.998533 0.0541385 -0
vn -0.998533 0.0541385 0
vn -1 0 0
vn -1 0 0
vn -1 0 0
vn -1 0 0
vn -1 -0 -0
vn -1 0 0

# Mesh '<STL_BINARY>' with 124 faces
g <STL_BINARY>
usemtl DefaultMaterial
f  1//1 2//2 3//3
f  4//4 5//5 6//6
f  7//7 8//8 9//9
f  10//10 11//11 12//12
f  13//13 14//14 15//15
f  16//16 17//17 18//18
f  19//19 20//20 21//21
f  22//22 23//23 24//24
f  25//25 26//26 27//27
f  28//28 29//29 30//30
f  31//31 32//32 33//33
f  34//34 35//35 36//36
f  37//37 38//38 39//39
f  40//40 41//41 42//42
f  43//43 44//44 45//45
f  46//46 47//47 48//48
f  49//49 50//50 51//51
f  52//52 53//53 54//54
f  55//55 56//56 57//57
f  58//58 59//59 60//60
f  61//61 62//62 63//63
f  64//64 65//65 66//66
f  67//67 68//68 69//69
f  70//70 71//71 72//72
f  73//73 74//74 75//75
f  76//76 77//77 78//78
f  79//79 80//80 81//81
f  82//82 83//83 84//84
f  85//85 86//86 87//87
f  88//88 89//89 90//90
f  91//91 92//92 93//93
f  94//94 95//95 96//96
f  97//97 98//98 99//99
f  100//100 101//101 102//102
f  103//103 104//104 105//105
f  106//106 107//107 108//108
f  109//109 110//110 111//111
f  112//112 113//113 114//114
f  115//115 116//116 117//117
f  118//118 119//119 120//120
f  121//121 122//122 123//123
f  124//124 125//125 126//126
f  127//127 128//128 129//129
f  130//130 131//131 132//132
f  133//133 134//134 135//135
f  136//136 137//137 138//138
f  139//139 140//140 141//141
f  142//142 143//143 144//144
f  145//145 146//146 147//147
f  148//148 149//149 150//150
f  151//151 152//152 153//153
f  154//154 155//155 156//156
f  157//157 158//158 159//159
f  160//160 161//161 162//162
f  163//163 164//164 165//165
f  166//166 167//167 168//168
f  169//169 170//170 171//171
f  172//172 173//173 174//174
f  175//175 176//176 177//177
f  178//178 179//179 180//180
f  181//181 182//182 183//183
f  184//184 185//185 186//186
f  187//187 188//188 189//189
f  190//190 191//191 192//192
f  193//193 194//194 195//195
f  196//196 197//197 198//198
f  199//199 200//200 201//201
f  202//202 203//203 204//204
f  205//205 206//206 207//207
f  208//208 209//209 210//210
f  211//211 212//212 213//213
f  214//214 215//215 216//216
f  217//217 218//218 219//219
f  220//220 221//221 222//222
f  223//223 224//224 225//225
f  226//226 227//227 228//228
f  229//229 230//230 231//231
f  232//232 233//233 234//234
f  235//235 236//236 237//237
f  238//238 239//239 240//240
f  241//241 242//242 243//243
f  244//244 245//245 246//246
f  247//247 248//248 249//249
f  250//250 251//251 252//252
f  253//253 254//254 255//255
f  256//256 257//257 258//258
f  259//259 260//260 261//261
f  262//262 263//263 264//264
f  265//265 266//266 267//267
f  268//268 269//269 270//270
f  271//271 272//272 273//273
f  274//274 275//275 276//276
f  277//277 278//278 279//279
f  280//280 281//281 282//282
f  283//283 284//284 285//285
f  286//286 287//287 288//288
f  289//289 290//290 291//291
f  292//292 293//293 294//294
f  295//295 296//296 297//297
f  298//298 299//299 300//300
f  301//301 302//302 303//303
f  304//304 305//305 306//306
f  307//307 308//308 309//309
f  310//310 311//311 312//312
f  313//313 314//314 315//315
f  316//316 317//317 318//318
f  319//319 320//320 321//321
f  322//322 323//323 324//324
f  325//325 326//326 327//327
f  328//328 329//329 330//330
f  331//331 332//332 333//333
f  334//334 335//335 336//336
f  337//337 338//338 339//339
f  340//340 341//341 342//342
f  343//343 344//344 345//345
f  346//346 347//347 348//348
f  349//349 350//350 351//351
f  352//352 353//353 354//354
f  355//355 356//356 357//357
f  358//358 359//359 360//360
f  361//361 362//362 363//363
f  364//364 365//365 366//366
f  367//367 368//368 369//369
f  370//370 371//371 372//372

